HIERARCHY
ROOT ui
{
	 OFFSET 0 0 0
	 CHANNELS 3 XPosition YPosition Z Position
	 EndSite
	 {
	 OFFSET 0 -1 0
	 }
}
ROOT li
{
	 OFFSET 0 0 0
	 CHANNELS 3 XPosition YPosition Z Position
	 EndSite
	 {
	 OFFSET 0 -1 0
	 }
}
ROOT ul
{
	 OFFSET 0 0 0
	 CHANNELS 3 XPosition YPosition Z Position
	 EndSite
	 {
	 OFFSET 0 -1 0
	 }
}
ROOT ll
{
	 OFFSET 0 0 0
	 CHANNELS 3 XPosition YPosition Z Position
	 EndSite
	 {
	 OFFSET 0 -1 0
	 }
}
ROOT tt
{
	 OFFSET 0 0 0
	 CHANNELS 3 XPosition YPosition Z Position
	 EndSite
	 {
	 OFFSET 0 -1 0
	 }
}
ROOT tb
{
	 OFFSET 0 0 0
	 CHANNELS 3 XPosition YPosition Z Position
	 EndSite
	 {
	 OFFSET 0 -1 0
	 }
}
ROOT td
{
	 OFFSET 0 0 0
	 CHANNELS 3 XPosition YPosition Z Position
	 EndSite
	 {
	 OFFSET 0 -1 0
	 }
}
ROOT v
{
	 OFFSET 0 0 0
	 CHANNELS 3 XPosition YPosition Z Position
	 EndSite
	 {
	 OFFSET 0 -1 0
	 }
}
ROOT bn
{
	 OFFSET 0 0 0
	 CHANNELS 3 XPosition YPosition Z Position
	 EndSite
	 {
	 OFFSET 0 -1 0
	 }
}
MOTION
Frames: 21
Frame Time: 0.002
-0.002874650001525879	-0.0010119919776916504	0		0.38224591064453123	-2.35662353515625	0		-1.1172689208984374	-0.02144157600402832	0		-0.8826165771484376	-2.33794677734375	0		1.373674072265625	-0.4722937316894531	0		2.953338134765625	0.1366916961669922	0		4.4420234375	0.2468997344970703	0		5.54149072265625	0.12952445983886718	0		-0.25496908569335935	5.8620830078125	0		
-0.08333458709716797	0.01081557846069336	0		0.414178466796875	-2.362228271484375	0		-1.1108824462890625	-0.022100143432617188	0		-0.8125965576171875	-2.3374072265625	0		1.3771251220703125	-0.47625265502929687	0		2.947587890625	0.13027377319335937	0		4.4562421875	0.24060093688964843	0		5.54783740234375	0.13062516784667969	0		-0.38442608642578124	5.8414912109375	0		
-0.0672026596069336	2.9774799942970274E-4	0		0.36716192626953126	-2.356752197265625	0		-1.104606201171875	-0.022763437271118164	0		-0.8687130126953125	-2.339142578125	0		1.362539794921875	-0.4749584045410156	0		2.928851806640625	0.13304798889160158	0		4.4545419921875	0.24855580139160155	0		5.5581787109375	0.13971501159667968	0		-0.23132502746582032	5.871033203125	0		
-0.057067619323730466	0.003871978998184204	0		0.414808349609375	-2.363544921875	0		-1.078545166015625	-0.02568374824523926	0		-0.8579365234375	-2.3357880859375	0		1.3597799072265624	-0.47282086181640626	0		2.944712890625	0.11936624908447266	0		4.46545068359375	0.24135768127441407	0		5.56422314453125	0.14088461303710936	0		-0.3790888671875	5.8536181640625	0		
-0.04819552230834961	0.006475162982940674	0		0.388483642578125	-2.348349853515625	0		-1.0727034912109374	-0.026320167541503906	0		-0.814506591796875	-2.339841064453125	0		1.40671435546875	-0.47532077026367187	0		2.977757568359375	0.13847720336914063	0		4.48239892578125	0.2560899658203125	0		5.5790185546875	0.14194346618652343	0		-0.3549163818359375	5.84791455078125	0		
-0.0497444953918457	-7.755089998245239E-4	0		0.44249700927734376	-2.361177734375	0		-1.08712890625	-0.024681476593017577	0		-0.77641845703125	-2.346788818359375	0		1.386308349609375	-0.4809425048828125	0		2.94703662109375	0.12140287017822265	0		4.49070654296875	0.24392535400390625	0		5.5714208984375	0.1352737579345703	0		-0.3869749755859375	5.844947265625	0		
-0.044530986785888675	-0.0010967049598693847	0		0.3943885192871094	-2.355703857421875	0		-1.085946044921875	-0.028221975326538085	0		-0.7705966186523437	-2.347298583984375	0		1.4055462646484376	-0.4890638122558594	0		2.951379150390625	0.13487010192871093	0		4.47995654296875	0.25297869873046874	0		5.57659912109375	0.1364101104736328	0		-0.2290788116455078	5.85963330078125	0		
-0.04954372024536133	0.008725061416625976	0		0.45175064086914063	-2.363522705078125	0		-1.0691959228515624	-0.038924217224121094	0		-0.8380819702148438	-2.3418935546875	0		1.3725963134765624	-0.4835418701171875	0		2.95705322265625	0.12230513763427735	0		4.4896611328125	0.2457449493408203	0		5.5714306640625	0.13763017272949218	0		-0.3599272766113281	5.83891357421875	0		
-0.03515763092041015	-0.0016697750091552734	0		0.416830078125	-2.362206298828125	0		-1.0525491943359375	-0.02858462142944336	0		-0.796060546875	-2.34579541015625	0		1.400097412109375	-0.4937559509277344	0		2.983696533203125	0.13647467041015626	0		4.49109912109375	0.2455737762451172	0		5.59	0.14651136779785157	0		-0.3416780700683594	5.848384765625	0		
0.050022838592529296	1.3648399710655212E-4	0		0.4655459289550781	-2.35886865234375	0		-1.0602747802734376	-0.018919143676757812	0		-0.8263312377929688	-2.3408046875	0		1.4104383544921875	-0.4867585754394531	0		2.981654296875	0.12296307373046875	0		4.4973701171875	0.2612997741699219	0		5.5941181640625	0.14750436401367187	0		-0.373874755859375	5.84347607421875	0		
-0.03709246444702148	0.00797174310684204	0		0.44082882690429687	-2.358658203125	0		-1.0605179443359376	-0.023306833267211915	0		-0.7531730346679687	-2.351980224609375	0		1.4282437744140626	-0.49484686279296874	0		2.997507080078125	0.130218017578125	0		4.50603466796875	0.2549458160400391	0		5.59788623046875	0.1484315185546875	0		-0.3503413696289063	5.8369423828125	0		
0.05322781372070313	-0.004207083225250244	0		0.46966421508789064	-2.364049072265625	0		-1.065140625	-0.030607295989990235	0		-0.7892896728515625	-2.352863037109375	0		1.4038233642578124	-0.49145614624023437	0		2.988855712890625	0.12372320556640624	0		4.505359375	0.2486436004638672	0		5.5972197265625	0.14133399963378906	0		-0.3489727783203125	5.83769580078125	0		
-0.02064908981323242	-0.0025113770961761473	0		0.41923171997070313	-2.3585380859375	0		-1.046096435546875	-0.03713348388671875	0		-0.749818359375	-2.356564208984375	0		1.4119466552734374	-0.49744024658203123	0		2.9788974609375	0.12020835113525391	0		4.508423828125	0.24924220275878906	0		5.60030224609375	0.14211834716796876	0		-0.34685931396484376	5.83746826171875	0		
-0.017886119842529295	-0.0026579289436340333	0		0.4363106384277344	-2.362770263671875	0		-1.0352520751953125	-0.03052495574951172	0		-0.8135597534179687	-2.34408984375	0		1.397841064453125	-0.49218179321289063	0		2.97955419921875	0.11254325103759766	0		4.50813720703125	0.24882171630859376	0		5.6079111328125	0.130778076171875	0		-0.3289035339355469	5.84509619140625	0		
-0.005347693920135498	0.008112299919128417	0		0.4660300598144531	-2.365120849609375	0		-1.032828125	-0.030785015106201172	0		-0.7378779907226563	-2.3501083984375	0		1.4203160400390624	-0.4933255004882813	0		3.013216064453125	0.13649530029296875	0		4.5225224609375	0.2491893768310547	0		5.609529296875	0.1514353485107422	0		-0.3472272338867187	5.8501484375	0		
-0.013384906768798829	-0.002874272108078003	0		0.4564623107910156	-2.359030029296875	0		-1.0466785888671875	-0.02483298683166504	0		-0.8125079956054687	-2.34946826171875	0		1.4194140625	-0.4972144470214844	0		2.97417578125	0.1272058792114258	0		4.52573291015625	0.26463262939453125	0		5.611591796875	0.1520219268798828	0		-0.34199478149414064	5.83697119140625	0		
-0.021529550552368163	0.0071612300872802735	0		0.48340945434570315	-2.3643134765625	0		-1.043011962890625	-0.03303414154052734	0		-0.7395855712890625	-2.357374267578125	0		1.4181844482421875	-0.5000987548828125	0		3.004845703125	0.12114975738525391	0		4.52830517578125	0.2510394287109375	0		5.61415478515625	0.136545166015625	0		-0.326755859375	5.84771728515625	0		
-0.01020866584777832	-0.00298893404006958	0		0.431115478515625	-2.35874560546875	0		-1.04753955078125	-0.02911395263671875	0		-0.8029844360351562	-2.361806396484375	0		1.416616943359375	-0.5039767456054688	0		2.978189453125	0.11468417358398438	0		4.523625	0.24348736572265625	0		5.61065283203125	0.14508445739746093	0		-0.20577339172363282	5.8573837890625	0		
-0.009089129447937012	-0.0030101571083068846	0		0.48839752197265623	-2.3623125	0		-1.030481201171875	-0.03538791275024414	0		-0.7705655517578125	-2.352216796875	0		1.4038623046875	-0.4957336120605469	0		2.9965166015625	0.13573457336425782	0		4.5238798828125	0.2588544006347656	0		5.611759765625	0.14553268432617186	0		-0.358322265625	5.8409384765625	0		
-0.011084238052368163	0.014021185874938965	0		0.43748553466796875	-2.35373779296875	0		-1.037504638671875	-0.02137986183166504	0		-0.7675431518554687	-2.350292236328125	0		1.4247161865234375	-0.4968349609375	0		2.98011962890625	0.11513351440429688	0		4.52960693359375	0.2511377105712891	0		5.61666064453125	0.15390545654296875	0		-0.19064248657226562	5.86718798828125	0		
-0.007701228141784668	-0.0029867970943450927	0		0.48808984375	-2.364199951171875	0		-1.0409854736328126	-0.025382537841796875	0		-0.7349073486328125	-2.35764697265625	0		1.4222760009765625	-0.49968997192382814	0		3.002813232421875	0.1291208038330078	0		4.54114892578125	0.2513380432128906	0		5.61312744140625	0.14632992553710938	0		-0.3246688537597656	5.84757470703125	0		
